<svg width="450" height="104" viewBox="0 0 450 104" fill="none" xmlns="http://www.w3.org/2000/svg">
<g transform="translate(-3.5 -14.4) scale(1.277)">
<path d="M18 52 C18 28 49 28 74 52 C99 76 124 76 124 52 C124 28 99 28 74 52 C49 76 18 76 18 52" stroke="#141414" stroke-width="14" stroke-linecap="round" stroke-linejoin="round"/>
<path d="M137 18L137 86" stroke="#141414" stroke-width="3" stroke-linecap="round"/>
<path d="M174.351 48.657Q174.039 49.147 173.710 49.360Q173.380 49.574 172.810 49.574Q172.240 49.574 171.643 49.289Q171.047 49.004 170.298 48.675Q169.559 48.345 168.606 48.060Q167.653 47.775 166.398 47.775Q164.492 47.775 163.432 48.559Q162.381 49.343 162.381 50.625Q162.381 51.507 162.977 52.112Q163.574 52.709 164.554 53.154Q165.542 53.591 166.798 53.974Q168.054 54.357 169.372 54.820Q170.699 55.274 171.955 55.871Q173.211 56.468 174.190 57.367Q175.179 58.267 175.776 59.531Q176.373 60.796 176.373 62.595Q176.373 64.733 175.589 66.540Q174.805 68.348 173.291 69.667Q171.786 70.976 169.532 71.715Q167.279 72.454 164.349 72.454Q162.835 72.454 161.348 72.178Q159.869 71.911 158.533 71.412Q157.197 70.913 156.022 70.263Q154.855 69.604 154.000 68.838L155.826 65.899Q156.137 65.392 156.610 65.107Q157.082 64.822 157.821 64.822Q158.533 64.822 159.130 65.178Q159.727 65.534 160.466 65.944Q161.214 66.353 162.220 66.710Q163.236 67.066 164.750 67.066Q165.890 67.066 166.709 66.817Q167.537 66.558 168.045 66.122Q168.562 65.677 168.802 65.124Q169.052 64.563 169.052 63.967Q169.052 62.996 168.437 62.381Q167.822 61.767 166.834 61.312Q165.854 60.858 164.572 60.493Q163.289 60.119 161.962 59.665Q160.644 59.202 159.370 58.578Q158.106 57.946 157.117 56.993Q156.137 56.040 155.523 54.642Q154.917 53.243 154.917 51.248Q154.917 49.432 155.630 47.793Q156.342 46.154 157.767 44.898Q159.192 43.642 161.312 42.903Q163.432 42.164 166.228 42.164Q169.363 42.164 171.928 43.188Q174.493 44.213 176.150 45.869L174.351 48.657ZM181.307 72.000L181.307 42.618L186.152 42.618Q187.630 42.618 188.120 43.981L188.574 45.896Q189.340 45.094 190.150 44.417Q190.970 43.732 191.905 43.233Q192.849 42.734 193.945 42.449Q195.040 42.164 196.322 42.164Q199.030 42.164 200.793 43.607Q202.566 45.041 203.474 47.437Q204.187 46.038 205.229 45.032Q206.271 44.017 207.509 43.393Q208.747 42.761 210.127 42.467Q211.517 42.164 212.915 42.164Q215.391 42.164 217.297 42.903Q219.212 43.642 220.503 45.085Q221.803 46.519 222.489 48.603Q223.175 50.678 223.175 53.333L223.175 72.000L215.302 72.000L215.302 53.333Q215.302 48.176 210.884 48.176Q209.887 48.176 209.050 48.505Q208.212 48.826 207.571 49.485Q206.930 50.144 206.574 51.115Q206.217 52.077 206.217 53.333L206.217 72.000L198.344 72.000L198.344 53.333Q198.344 50.536 197.249 49.360Q196.153 48.176 194.016 48.176Q192.644 48.176 191.433 48.817Q190.222 49.458 189.171 50.598L189.171 72.000L181.307 72.000ZM242.639 42.164Q245.943 42.164 248.650 43.215Q251.358 44.266 253.290 46.225Q255.232 48.176 256.283 50.972Q257.343 53.760 257.343 57.269Q257.343 60.769 256.283 63.584Q255.232 66.389 253.290 68.357Q251.358 70.317 248.650 71.377Q245.943 72.427 242.639 72.427Q239.299 72.427 236.573 71.377Q233.857 70.317 231.915 68.357Q229.983 66.389 228.914 63.584Q227.845 60.769 227.845 57.269Q227.845 53.760 228.914 50.972Q229.983 48.176 231.915 46.225Q233.857 44.266 236.573 43.215Q239.299 42.164 242.639 42.164ZM242.639 66.532Q245.996 66.532 247.617 64.207Q249.247 61.883 249.247 57.296Q249.247 52.736 247.617 50.411Q245.996 48.087 242.639 48.087Q239.192 48.087 237.562 50.411Q235.941 52.736 235.941 57.296Q235.941 61.883 237.562 64.207Q239.192 66.532 242.639 66.532ZM275.556 42.164Q278.860 42.164 281.568 43.215Q284.275 44.266 286.208 46.225Q288.150 48.176 289.200 50.972Q290.260 53.760 290.260 57.269Q290.260 60.769 289.200 63.584Q288.150 66.389 286.208 68.357Q284.275 70.317 281.568 71.377Q278.860 72.427 275.556 72.427Q272.216 72.427 269.491 71.377Q266.775 70.317 264.833 68.357Q262.900 66.389 261.832 63.584Q260.763 60.769 260.763 57.269Q260.763 53.760 261.832 50.972Q262.900 48.176 264.833 46.225Q266.775 44.266 269.491 43.215Q272.216 42.164 275.556 42.164ZM275.556 66.532Q278.914 66.532 280.535 64.207Q282.165 61.883 282.165 57.296Q282.165 52.736 280.535 50.411Q278.914 48.087 275.556 48.087Q272.109 48.087 270.480 50.411Q268.859 52.736 268.859 57.296Q268.859 61.883 270.480 64.207Q272.109 66.532 275.556 66.532ZM305.365 72.454Q303.370 72.454 301.830 71.875Q300.289 71.287 299.238 70.210Q298.187 69.123 297.644 67.582Q297.100 66.042 297.100 64.109L297.100 48.256L294.339 48.256Q293.707 48.256 293.262 47.864Q292.825 47.463 292.825 46.662L292.825 43.589L297.528 42.734L299.122 35.119Q299.434 33.837 300.859 33.837L304.965 33.837L304.965 42.788L312.544 42.788L312.544 48.256L304.965 48.256L304.965 63.593Q304.965 64.822 305.543 65.534Q306.131 66.247 307.218 66.247Q307.788 66.247 308.189 66.122Q308.589 65.988 308.874 65.837Q309.159 65.677 309.400 65.552Q309.640 65.418 309.899 65.418Q310.237 65.418 310.460 65.579Q310.691 65.730 310.923 66.104L313.292 69.862Q311.662 71.145 309.605 71.804Q307.556 72.454 305.365 72.454ZM324.603 45.495Q325.431 44.756 326.322 44.141Q327.221 43.527 328.237 43.090Q329.252 42.645 330.401 42.405Q331.559 42.164 332.895 42.164Q335.290 42.164 337.143 42.992Q338.995 43.812 340.260 45.299Q341.534 46.778 342.175 48.835Q342.816 50.883 342.816 53.333L342.816 72.000L334.979 72.000L334.979 53.333Q334.979 50.883 333.839 49.530Q332.699 48.176 330.472 48.176Q328.824 48.176 327.364 48.888Q325.912 49.601 324.603 50.883L324.603 72.000L316.739 72.000L316.739 29.508L324.603 29.508L324.603 45.495Z" fill="#141414"/>
</g>
</svg>
